<svg width="33" height="30" viewBox="0 0 33 30" fill="none" xmlns="http://www.w3.org/2000/svg">
<path d="M6.78171 20.6333L5.87096 21.0429L5.87096 21.0429L6.78171 20.6333ZM6.31967 13.8535L5.36292 13.5674L5.36292 13.5674L6.31967 13.8535ZM26.8087 13.8535L27.7655 13.5674L27.7655 13.5674L26.8087 13.8535ZM26.3467 20.6333L25.4359 20.2237L25.4359 20.2237L26.3467 20.6333ZM19.2757 25.2287L19.1359 24.2399L19.1359 24.2399L19.2757 25.2287ZM13.8526 25.2287L13.7127 26.2175L13.7127 26.2175L13.8526 25.2287ZM11.3479 9.42342L11.1672 8.44126L11.3479 9.42342ZM21.7805 9.42342L21.5998 10.4056L21.5998 10.4056L21.7805 9.42342ZM12.8557 25.0876L12.9955 24.0988L12.9955 24.0988L12.8557 25.0876ZM6.9054 20.9083L7.81615 20.4987L7.81615 20.4987L6.9054 20.9083ZM20.2727 25.0876L20.4126 26.0764L20.4126 26.0764L20.2727 25.0876ZM26.223 20.9083L27.1337 21.318L27.1337 21.318L26.223 20.9083ZM26.7068 13.5128L25.7501 13.799L25.7501 13.799L26.7068 13.5128ZM6.42158 13.5128L7.37833 13.799L7.37833 13.799L6.42158 13.5128ZM20.7951 9.71438L19.896 9.27977L19.896 9.27977L20.7951 9.71438ZM19.6124 9.86655C19.3723 10.3631 19.5803 10.9602 20.0768 11.2003C20.5734 11.4403 21.1705 11.2323 21.4106 10.7358L19.6124 9.86655ZM12.3333 9.71438L13.2324 9.27977L13.2324 9.27977L12.3333 9.71438ZM11.7178 10.7358C11.9579 11.2323 12.555 11.4403 13.0515 11.2003C13.5481 10.9602 13.7561 10.3631 13.516 9.86655L11.7178 10.7358ZM15.5562 3.72068L15.7093 4.7075L15.7093 4.7075L15.5562 3.72068ZM15.7125 3.69641L15.5594 2.70958L15.5594 2.70959L15.7125 3.69641ZM17.4158 3.69641L17.2627 4.68324L17.2627 4.68324L17.4158 3.69641ZM17.5722 3.72068L17.7254 2.73385L17.7254 2.73385L17.5722 3.72068ZM21.1251 6.71556L22.0958 6.48095L22.0958 6.48095L21.1251 6.71556ZM12.0033 6.71556L12.974 6.95017L12.974 6.95017L12.0033 6.71556ZM20.1328 24.0988L19.1359 24.2399L19.4156 26.2175L20.4126 26.0764L20.1328 24.0988ZM13.9925 24.2399L12.9955 24.0988L12.7158 26.0764L13.7127 26.2175L13.9925 24.2399ZM25.7501 13.799L25.852 14.1397L27.7655 13.5674L27.6636 13.2267L25.7501 13.799ZM25.4359 20.2237L25.3122 20.4987L27.1337 21.318L27.2574 21.0429L25.4359 20.2237ZM7.81615 20.4987L7.69247 20.2237L5.87096 21.0429L5.99464 21.3179L7.81615 20.4987ZM7.27643 14.1397L7.37833 13.799L5.46482 13.2267L5.36292 13.5674L7.27643 14.1397ZM7.69247 20.2237C6.81767 18.2787 6.6743 16.1528 7.27643 14.1397L5.36292 13.5674C4.62161 16.0459 4.80165 18.6655 5.87096 21.0429L7.69247 20.2237ZM25.852 14.1397C26.4541 16.1528 26.3107 18.2787 25.4359 20.2237L27.2574 21.0429C28.3267 18.6655 28.5068 16.0458 27.7655 13.5674L25.852 14.1397ZM19.1359 24.2399C17.4328 24.4808 15.6956 24.4808 13.9925 24.2399L13.7127 26.2175C15.6014 26.4847 17.5269 26.4847 19.4156 26.2175L19.1359 24.2399ZM11.5286 10.4056C14.8485 9.79483 18.2799 9.79483 21.5998 10.4056L21.9612 8.44126C18.4023 7.78658 14.7261 7.78658 11.1672 8.44126L11.5286 10.4056ZM12.9955 24.0988C10.591 23.7587 8.64981 22.3522 7.81615 20.4987L5.99464 21.3179C7.1482 23.8827 9.73176 25.6543 12.7158 26.0764L12.9955 24.0988ZM20.4126 26.0764C23.3966 25.6543 25.9802 23.8827 27.1337 21.318L25.3122 20.4987C24.4786 22.3522 22.5374 23.7587 20.1328 24.0988L20.4126 26.0764ZM21.5998 10.4056C23.6928 10.7906 25.2567 12.1495 25.7501 13.799L27.6636 13.2267C26.9221 10.7478 24.671 8.93975 21.9612 8.44126L21.5998 10.4056ZM11.1672 8.44126C8.45744 8.93975 6.20625 10.7478 5.46482 13.2267L7.37833 13.799C7.87171 12.1495 9.43557 10.7906 11.5286 10.4056L11.1672 8.44126ZM19.896 9.27977L19.6124 9.86655L21.4106 10.7358L21.6942 10.149L19.896 9.27977ZM11.4342 10.149L11.7178 10.7358L13.516 9.86655L13.2324 9.27977L11.4342 10.149ZM15.7093 4.7075L15.8657 4.68324L15.5594 2.70959L15.403 2.73385L15.7093 4.7075ZM17.2627 4.68324L17.4191 4.7075L17.7254 2.73385L17.569 2.70958L17.2627 4.68324ZM20.1544 6.95017C20.3421 7.72691 20.2552 8.53666 19.896 9.27977L21.6942 10.149C22.2508 8.9975 22.3941 7.71527 22.0958 6.48095L20.1544 6.95017ZM11.0326 6.48095C10.7343 7.71527 10.8776 8.9975 11.4342 10.149L13.2324 9.27977C12.8732 8.53666 12.7863 7.72691 12.974 6.95017L11.0326 6.48095ZM15.8657 4.68324C16.3275 4.61158 16.8009 4.61158 17.2627 4.68324L17.569 2.70958C16.9042 2.60644 16.2242 2.60644 15.5594 2.70958L15.8657 4.68324ZM22.0958 6.48095C21.6141 4.48811 19.8304 3.06046 17.7254 2.73385L17.4191 4.7075C18.8666 4.93208 19.8944 5.87445 20.1544 6.95017L22.0958 6.48095ZM12.974 6.95017C13.234 5.87445 14.2618 4.93208 15.7093 4.7075L15.403 2.73385C13.298 3.06046 11.5143 4.48811 11.0326 6.48095L12.974 6.95017Z" fill="white"/>
</svg>
