<svg width="51" height="51" viewBox="0 0 51 51" fill="none" xmlns="http://www.w3.org/2000/svg">
<path opacity="0.1" fill-rule="evenodd" clip-rule="evenodd" d="M0.160156 25.3867C0.160156 11.366 11.5262 0 25.5468 0C39.5675 0 50.9335 11.366 50.9335 25.3867C50.9335 39.4073 39.5675 50.7733 25.5468 50.7733C11.5262 50.7733 0.160156 39.4073 0.160156 25.3867Z" fill="#F8F8F8"/>
<path fill-rule="evenodd" clip-rule="evenodd" d="M39.0864 25.3675C39.0864 26.2831 38.9932 27.1975 38.8101 28.0888C38.6316 28.9589 38.3671 29.8132 38.0207 30.6299C37.6822 31.4321 37.2624 32.2051 36.7718 32.926C36.2886 33.6424 35.7318 34.3144 35.1203 34.9271C34.5074 35.5371 33.833 36.0922 33.117 36.5776C32.3937 37.0647 31.6196 37.4839 30.8169 37.824C29.9991 38.1686 29.1428 38.4327 28.2735 38.6109C27.381 38.7945 26.4632 38.8882 25.5463 38.8882C24.6286 38.8882 23.7109 38.7945 22.8197 38.6109C21.949 38.4327 21.0928 38.1686 20.2756 37.824C19.473 37.4839 18.6981 37.0647 17.9748 36.5776C17.2588 36.0923 16.5845 35.5371 15.9729 34.9271C15.3607 34.3144 14.804 33.6424 14.32 32.926C13.8321 32.2051 13.4116 31.432 13.0718 30.6299C12.7253 29.8132 12.4602 28.9589 12.281 28.0888C12.0999 27.1975 12.0073 26.2831 12.0073 25.3675C12.0073 24.4511 12.0999 23.5348 12.2811 22.6454C12.4603 21.7753 12.7254 20.9197 13.0718 20.1044C13.4116 19.3016 13.8322 18.5279 14.3201 17.8069C14.804 17.09 15.3608 16.4192 15.973 15.8058C16.5845 15.1958 17.2589 14.642 17.9749 14.1574C18.6982 13.6681 19.4731 13.249 20.2757 12.9083C21.0929 12.5629 21.949 12.2982 22.8198 12.1213C23.711 11.9391 24.6287 11.8467 25.5463 11.8467C26.4633 11.8467 27.381 11.9391 28.2735 12.1213C29.1429 12.2983 29.9991 12.563 30.817 12.9083C31.6196 13.2489 32.3938 13.6681 33.1171 14.1574C33.8331 14.642 34.5075 15.1958 35.1203 15.8058C35.7319 16.4192 36.2886 17.09 36.7719 17.8069C37.2624 18.5279 37.6822 19.3017 38.0207 20.1044C38.3671 20.9197 38.6316 21.7753 38.8101 22.6454C38.9932 23.5348 39.0864 24.4511 39.0864 25.3675ZM20.6127 14.9238C17.3883 16.4443 14.9817 19.4112 14.2313 22.9868C14.5362 22.9894 19.3546 23.0502 24.9062 21.5772C22.9049 18.0267 20.7668 15.1292 20.6127 14.9238ZM25.8642 23.3552C19.9106 25.135 14.1976 25.007 13.9927 24.9991C13.9893 25.1232 13.9834 25.2433 13.9834 25.3675C13.9834 28.3337 15.104 31.0378 16.946 33.0825C16.942 33.0765 20.1063 27.4708 26.3462 25.4559C26.4969 25.4058 26.6503 25.3608 26.8024 25.3173C26.5122 24.6611 26.1954 24.0035 25.8642 23.3552ZM33.1825 16.7018C31.1468 14.9093 28.4738 13.822 25.5462 13.822C24.6067 13.822 23.695 13.9356 22.8216 14.1455C22.9948 14.3779 25.1667 17.255 27.1442 20.8807C31.5071 19.2475 33.154 16.744 33.1825 16.7018ZM27.5905 27.2305C27.5648 27.239 27.539 27.2464 27.5139 27.2556C20.6916 29.6305 18.4637 34.4166 18.4396 34.4689C20.4026 35.9932 22.8647 36.9129 25.5463 36.9129C27.1476 36.9129 28.6728 36.5873 30.0605 35.9979C29.8893 34.9891 29.2176 31.4531 27.5905 27.2305ZM32.0076 34.9429C34.6039 33.1934 36.4478 30.4153 36.9622 27.1974C36.7242 27.1209 33.4892 26.0982 29.757 26.6957C31.2737 30.8576 31.8899 34.2471 32.0076 34.9429ZM28.0342 22.6012C28.3026 23.1518 28.5624 23.7123 28.8024 24.2755C28.8877 24.4775 28.971 24.6756 29.0523 24.8736C33.0245 24.3745 36.9378 25.2142 37.1051 25.2485C37.0787 22.5114 36.0982 19.9994 34.4758 18.0327C34.4539 18.0637 32.5994 20.7394 28.0342 22.6012Z" fill="#F8F8F8"/>
</svg>
