<svg width="59" height="63" viewBox="0 0 59 63" fill="none" xmlns="http://www.w3.org/2000/svg">
<path d="M26.2652 2.76016C27.1629 2.26161 28.1729 2 29.1997 2C30.2266 2 31.2365 2.26161 32.1343 2.76016L54.8461 15.3748C55.3169 15.6366 55.7092 16.0196 55.9824 16.484C56.2555 16.9484 56.3995 17.4774 56.3995 18.0162V42.9039C56.3992 43.9818 56.1107 45.04 55.5639 45.9688C55.0172 46.8977 54.2319 47.6634 53.2896 48.1867L32.1343 59.9431C31.2365 60.4416 30.2266 60.7032 29.1997 60.7032C28.1729 60.7032 27.1629 60.4416 26.2652 59.9431L5.10984 48.1867C4.16799 47.6637 3.38305 46.8984 2.83628 45.9701C2.28952 45.0419 2.00079 43.9843 2 42.907V18.0162C1.99998 17.4774 2.14398 16.9484 2.41711 16.484C2.69023 16.0196 3.08254 15.6366 3.55341 15.3748L26.2682 2.76016H26.2652Z" stroke="#151124" stroke-width="3.45393" stroke-linecap="round" stroke-linejoin="round"/>
<path d="M15.5997 8.68408L42.7994 23.795V34.3727M11.0664 32.3418L20.133 37.3949" stroke="#151124" stroke-width="3.45393" stroke-linecap="round" stroke-linejoin="round"/>
<path d="M2 16.2393L29.1997 31.3502M29.1997 31.3502L56.3995 16.2393M29.1997 31.3502V61.5721" stroke="#151124" stroke-width="3.45393" stroke-linejoin="round"/>
</svg>
