<svg width="55" height="59" viewBox="0 0 55 59" fill="none" xmlns="http://www.w3.org/2000/svg">
<path d="M26.9912 1.70315C27.3655 1.23483 27.8289 0.845401 28.3547 0.557397C28.8805 0.269392 29.4582 0.0885354 30.0543 0.0252945C30.6505 -0.0379465 31.2532 0.0176846 31.8277 0.188968C32.4022 0.360251 32.9371 0.643785 33.4013 1.02316L48.1889 13.0998C49.0021 13.7638 49.5596 14.6895 49.7663 15.7188C49.973 16.7482 49.816 17.8173 49.3222 18.7438C48.0293 18.3486 46.6848 18.1485 45.3329 18.1499H43.9729L45.3238 16.6086L37.5356 10.2484L31.112 18.1545H25.2685L34.0223 7.38336L30.5317 4.53192L19.6609 18.1499H13.8583L26.9912 1.70315V1.70315ZM38.533 40.8164C37.9318 40.8164 37.3553 41.0552 36.9302 41.4802C36.5051 41.9053 36.2663 42.4819 36.2663 43.083C36.2663 43.6842 36.5051 44.2607 36.9302 44.6858C37.3553 45.1108 37.9318 45.3496 38.533 45.3496H43.0662C43.6674 45.3496 44.2439 45.1108 44.669 44.6858C45.0941 44.2607 45.3329 43.6842 45.3329 43.083C45.3329 42.4819 45.0941 41.9053 44.669 41.4802C44.2439 41.0552 43.6674 40.8164 43.0662 40.8164H38.533ZM4.53329 20.4166C4.53329 19.8154 4.7721 19.2389 5.19717 18.8138C5.62225 18.3887 6.19878 18.1499 6.79993 18.1499H9.32951L12.9335 13.6166H6.79993C4.99648 13.6166 3.26689 14.333 1.99165 15.6083C0.71642 16.8835 0 18.6131 0 20.4166V47.6163C0 50.622 1.19403 53.5047 3.31942 55.6301C5.44481 57.7555 8.32746 58.9495 11.3332 58.9495H45.3329C47.7375 58.9495 50.0436 57.9943 51.7439 56.294C53.4442 54.5937 54.3995 52.2875 54.3995 49.8829V31.7498C54.3995 29.3452 53.4442 27.0391 51.7439 25.3387C50.0436 23.6384 47.7375 22.6832 45.3329 22.6832H6.79993C6.19878 22.6832 5.62225 22.4444 5.19717 22.0193C4.7721 21.5942 4.53329 21.0177 4.53329 20.4166ZM4.53329 47.6163V26.8312C5.24048 27.0805 6.00661 27.2165 6.79993 27.2165H45.3329C46.5352 27.2165 47.6882 27.6941 48.5384 28.5443C49.3886 29.3944 49.8662 30.5475 49.8662 31.7498V49.8829C49.8662 51.0852 49.3886 52.2383 48.5384 53.0885C47.6882 53.9386 46.5352 54.4162 45.3329 54.4162H11.3332C9.52977 54.4162 7.80018 53.6998 6.52494 52.4246C5.24971 51.1493 4.53329 49.4197 4.53329 47.6163Z" fill="#151124"/>
</svg>
