<svg width="51" height="51" viewBox="0 0 51 51" fill="none" xmlns="http://www.w3.org/2000/svg">
<path opacity="0.1" fill-rule="evenodd" clip-rule="evenodd" d="M0 25.3867C0 11.366 11.366 0 25.3867 0C39.4073 0 50.7733 11.366 50.7733 25.3867C50.7733 39.4073 39.4073 50.7733 25.3867 50.7733C11.366 50.7733 0 39.4073 0 25.3867Z" fill="#F8F8F8"/>
<path fill-rule="evenodd" clip-rule="evenodd" d="M25.388 11.8467C21.7108 11.8467 21.2494 11.8628 19.8051 11.9285C18.3637 11.9945 17.3798 12.2227 16.5189 12.5575C15.6284 12.9033 14.873 13.3659 14.1204 14.1188C13.3673 14.8714 12.9047 15.6268 12.5577 16.517C12.222 17.3782 11.9936 18.3624 11.9287 19.8032C11.8641 21.2475 11.8472 21.7092 11.8472 25.3864C11.8472 29.0635 11.8635 29.5236 11.929 30.9678C11.9953 32.4092 12.2235 33.3931 12.558 34.254C12.9041 35.1445 13.3667 35.8999 14.1196 36.6525C14.8719 37.4057 15.6273 37.8694 16.5172 38.2152C17.3787 38.5501 18.3629 38.7783 19.804 38.8443C21.2482 38.91 21.7094 38.9261 25.3863 38.9261C29.0637 38.9261 29.5238 38.91 30.968 38.8443C32.4095 38.7783 33.3945 38.5501 34.2559 38.2152C35.1462 37.8694 35.9004 37.4057 36.6527 36.6525C37.4059 35.8999 37.8685 35.1445 38.2154 34.2543C38.5483 33.3931 38.7768 32.409 38.8445 30.9681C38.9094 29.5239 38.9263 29.0635 38.9263 25.3864C38.9263 21.7092 38.9094 21.2477 38.8445 19.8035C38.7768 18.3621 38.5483 17.3782 38.2154 16.5173C37.8685 15.6268 37.4059 14.8714 36.6527 14.1188C35.8996 13.3657 35.1464 12.9031 34.2551 12.5575C33.3919 12.2227 32.4075 11.9945 30.9661 11.9285C29.5218 11.8628 29.062 11.8467 25.3838 11.8467H25.388ZM24.1733 14.2866C24.5338 14.286 24.936 14.2866 25.3879 14.2866C29.003 14.2866 29.4315 14.2996 30.8591 14.3645C32.1792 14.4248 32.8957 14.6454 33.373 14.8307C34.0048 15.0761 34.4553 15.3695 34.9289 15.8434C35.4028 16.3173 35.6962 16.7686 35.9421 17.4005C36.1275 17.8772 36.3483 18.5936 36.4084 19.9138C36.4733 21.3411 36.4874 21.7698 36.4874 25.3832C36.4874 28.9966 36.4733 29.4254 36.4084 30.8527C36.348 32.1728 36.1275 32.8893 35.9421 33.366C35.6967 33.9979 35.4028 34.4478 34.9289 34.9214C34.455 35.3953 34.0051 35.6886 33.373 35.934C32.8963 36.1202 32.1792 36.3402 30.8591 36.4006C29.4318 36.4655 29.003 36.4796 25.3879 36.4796C21.7726 36.4796 21.3441 36.4655 19.9168 36.4006C18.5966 36.3397 17.8802 36.1191 17.4026 35.9338C16.7708 35.6884 16.3194 35.395 15.8456 34.9211C15.3717 34.4472 15.0783 33.997 14.8323 33.3649C14.647 32.8882 14.4261 32.1717 14.3661 30.8516C14.3012 29.4243 14.2882 28.9955 14.2882 25.3798C14.2882 21.7642 14.3012 21.3377 14.3661 19.9104C14.4264 18.5903 14.647 17.8738 14.8323 17.3965C15.0777 16.7647 15.3717 16.3133 15.8456 15.8394C16.3194 15.3656 16.7708 15.0722 17.4026 14.8262C17.8799 14.6401 18.5966 14.42 19.9168 14.3594C21.1658 14.303 21.6498 14.286 24.1733 14.2832V14.2866ZM32.6153 16.5348C31.7183 16.5348 30.9906 17.2617 30.9906 18.159C30.9906 19.056 31.7183 19.7837 32.6153 19.7837C33.5123 19.7837 34.2401 19.056 34.2401 18.159C34.2401 17.262 33.5123 16.5348 32.6153 16.5348ZM25.388 18.4331C21.5481 18.4331 18.4348 21.5464 18.4348 25.3863C18.4348 29.2263 21.5481 32.3381 25.388 32.3381C29.2279 32.3381 32.3401 29.2263 32.3401 25.3863C32.3401 21.5464 29.2279 18.4331 25.388 18.4331ZM25.388 20.8731C27.8804 20.8731 29.9012 22.8936 29.9012 25.3863C29.9012 27.8788 27.8804 29.8996 25.388 29.8996C22.8952 29.8996 20.8747 27.8788 20.8747 25.3863C20.8747 22.8936 22.8952 20.8731 25.388 20.8731Z" fill="#F8F8F8"/>
</svg>
