<svg width="32" height="30" viewBox="0 0 32 30" fill="none" xmlns="http://www.w3.org/2000/svg">
<path d="M4.41502 16.6809L5.38199 16.4314L4.41502 16.6809ZM4.41502 10.0754L5.38199 10.3249L4.41502 10.0754ZM25.0183 10.0754L25.9852 9.82588L25.9852 9.82588L25.0183 10.0754ZM25.0183 16.6809L25.9852 16.9304L25.0183 16.6809ZM18.3497 22.7433L18.1414 21.7666L18.3497 22.7433ZM11.0836 22.7433L10.8753 23.7199L11.0836 22.7433ZM11.0836 4.01304L10.8753 3.03636L10.8753 3.03636L11.0836 4.01304ZM18.3497 4.01304L18.558 3.03636L18.558 3.03636L18.3497 4.01304ZM27.2901 26.1581C27.6982 26.5291 28.3298 26.4991 28.7007 26.091C29.0717 25.6829 29.0417 25.0513 28.6336 24.6803L27.2901 26.1581ZM5.38199 16.4314C4.86369 14.4227 4.86369 12.3336 5.38199 10.3249L3.44806 9.82587C2.84531 12.1619 2.84531 14.5944 3.44806 16.9304L5.38199 16.4314ZM24.0513 10.3249C24.5696 12.3336 24.5696 14.4227 24.0513 16.4314L25.9852 16.9304C26.588 14.5944 26.588 12.1619 25.9852 9.82588L24.0513 10.3249ZM18.1414 21.7666C15.8891 22.2469 13.5442 22.2469 11.2919 21.7666L10.8753 23.7199C13.4022 24.2588 16.0311 24.2588 18.558 23.7199L18.1414 21.7666ZM11.2919 4.98971C13.5442 4.50942 15.8891 4.50942 18.1414 4.98971L18.558 3.03636C16.0311 2.49751 13.4022 2.49751 10.8753 3.03636L11.2919 4.98971ZM11.2919 21.7666C8.31208 21.1312 6.05345 19.0337 5.38199 16.4314L3.44806 16.9304C4.32891 20.3442 7.23742 22.9442 10.8753 23.7199L11.2919 21.7666ZM18.558 23.7199C22.1959 22.9442 25.1044 20.3442 25.9852 16.9304L24.0513 16.4314C23.3799 19.0337 21.1212 21.1312 18.1414 21.7666L18.558 23.7199ZM18.1414 4.98971C21.1212 5.62513 23.3799 7.72258 24.0513 10.3249L25.9852 9.82588C25.1044 6.41209 22.1959 3.81212 18.558 3.03636L18.1414 4.98971ZM10.8753 3.03636C7.23742 3.81212 4.32891 6.41208 3.44806 9.82587L5.38199 10.3249C6.05345 7.72258 8.31208 5.62513 11.2919 4.98971L10.8753 3.03636ZM22.4103 21.722L27.2901 26.1581L28.6336 24.6803L23.7538 20.2441L22.4103 21.722Z" fill="white"/>
</svg>
