<svg width="25" height="27" viewBox="0 0 25 27" fill="none" xmlns="http://www.w3.org/2000/svg">
<path fill-rule="evenodd" clip-rule="evenodd" d="M24.6496 0.992589C24.9546 1.31584 25.0579 1.79568 24.9154 2.22716L17.0569 26.0272C16.9048 26.4877 16.503 26.8032 16.043 26.8231C15.5831 26.8429 15.1583 26.5632 14.9714 26.1174L10.6562 15.8256L0.946974 11.2515C0.526341 11.0533 0.262449 10.6031 0.281212 10.1155C0.299976 9.62802 0.597593 9.20204 1.03206 9.04085L23.4849 0.710854C23.892 0.559837 24.3447 0.66934 24.6496 0.992589ZM12.8457 15.1876L15.8731 22.4079L21.171 6.36281L12.8457 15.1876ZM19.5834 4.6799L4.44649 10.2957L11.2581 13.5047L19.5834 4.6799Z" fill="white"/>
</svg>
