<svg width="67" height="67" viewBox="0 0 67 67" fill="none" xmlns="http://www.w3.org/2000/svg">
<path d="M57.2343 21.1521H60.4438C62.0469 21.1521 63.5843 21.7889 64.7179 22.9225C65.8514 24.056 66.4882 25.5934 66.4882 27.1965V39.2852C66.4882 40.8883 65.8514 42.4257 64.7179 43.5593C63.5843 44.6928 62.0469 45.3296 60.4438 45.3296H57.2343C56.4975 51.1724 53.6538 56.5455 49.2368 60.4406C44.8198 64.3356 39.1332 66.4849 33.2441 66.485V60.4406C38.0533 60.4406 42.6656 58.5301 46.0662 55.1295C49.4668 51.7289 51.3773 47.1166 51.3773 42.3074V24.1743C51.3773 19.3651 49.4668 14.7528 46.0662 11.3522C42.6656 7.95158 38.0533 6.04113 33.2441 6.04113C28.4349 6.04113 23.8227 7.95158 20.422 11.3522C17.0214 14.7528 15.111 19.3651 15.111 24.1743V45.3296H6.04438C4.44131 45.3296 2.9039 44.6928 1.77036 43.5593C0.636817 42.4257 0 40.8883 0 39.2852V27.1965C0 25.5934 0.636817 24.056 1.77036 22.9225C2.9039 21.7889 4.44131 21.1521 6.04438 21.1521H9.25395C9.99146 15.3099 12.8355 9.93756 17.2524 6.04317C21.6693 2.14879 27.3555 0 33.2441 0C39.1327 0 44.8189 2.14879 49.2358 6.04317C53.6527 9.93756 56.4968 15.3099 57.2343 21.1521V21.1521ZM6.04438 27.1965V39.2852H9.06658V27.1965H6.04438ZM57.4217 27.1965V39.2852H60.4438V27.1965H57.4217ZM20.43 44.6799L23.6335 39.5542C26.5139 41.3586 29.8453 42.3129 33.2441 42.3074C36.643 42.3129 39.9743 41.3586 42.8547 39.5542L46.0582 44.6799C42.2178 47.086 37.776 48.3588 33.2441 48.3518C28.7122 48.3588 24.2704 47.086 20.43 44.6799Z" fill="#151124"/>
</svg>
