<svg width="52" height="51" viewBox="0 0 52 51" fill="none" xmlns="http://www.w3.org/2000/svg">
<path opacity="0.1" fill-rule="evenodd" clip-rule="evenodd" d="M0.319824 25.3867C0.319824 11.366 11.6858 0 25.7065 0C39.7272 0 51.0932 11.366 51.0932 25.3867C51.0932 39.4073 39.7272 50.7733 25.7065 50.7733C11.6858 50.7733 0.319824 39.4073 0.319824 25.3867Z" fill="#F8F8F8"/>
<path fill-rule="evenodd" clip-rule="evenodd" d="M24.9462 20.6343L24.9995 21.5127L24.1116 21.4052C20.8797 20.9928 18.0563 19.5945 15.659 17.246L14.4871 16.0808L14.1852 16.9413C13.5459 18.8595 13.9543 20.8853 15.2861 22.2477C15.9964 23.0007 15.8366 23.1083 14.6114 22.6601C14.1852 22.5167 13.8123 22.4091 13.7768 22.4629C13.6525 22.5884 14.0786 24.2197 14.416 24.8651C14.8777 25.7615 15.8189 26.6399 16.8488 27.1598L17.7189 27.5721L16.689 27.5901C15.6946 27.5901 15.659 27.608 15.7656 27.9845C16.1207 29.1497 17.5236 30.3867 19.0862 30.9245L20.1872 31.301L19.2283 31.8747C17.8077 32.6993 16.1385 33.1654 14.4693 33.2013C13.6702 33.2192 13.0132 33.2909 13.0132 33.3447C13.0132 33.524 15.1796 34.5279 16.4404 34.9223C20.2227 36.0876 24.7153 35.5856 28.0893 33.5957C30.4865 32.1794 32.8838 29.3649 34.0025 26.6399C34.6062 25.1878 35.21 22.5346 35.21 21.2617C35.21 20.4371 35.2633 20.3295 36.2577 19.3435C36.8437 18.7699 37.3942 18.1424 37.5007 17.9631C37.6783 17.6225 37.6605 17.6225 36.7549 17.9273C35.2455 18.4651 35.0324 18.3934 35.7782 17.5867C36.3287 17.013 36.9857 15.9732 36.9857 15.6684C36.9857 15.6147 36.7194 15.7043 36.4175 15.8656C36.0979 16.0449 35.3876 16.3138 34.8548 16.4752L33.8959 16.7799L33.0258 16.1883C32.5464 15.8656 31.8716 15.5071 31.5164 15.3995C30.6108 15.1485 29.2257 15.1844 28.4089 15.4712C26.1892 16.278 24.7864 18.3575 24.9462 20.6343Z" fill="#F8F8F8"/>
</svg>
