<svg width="33" height="30" viewBox="0 0 33 30" fill="none" xmlns="http://www.w3.org/2000/svg">
<path d="M6.83057 25.4472C6.83057 22.2342 9.09057 19.4973 12.162 18.991L12.4386 18.9454C14.8981 18.5399 17.4042 18.5399 19.8636 18.9454L20.1403 18.991C23.2117 19.4973 25.4717 22.2342 25.4717 25.4472C25.4717 26.836 24.3819 27.9618 23.0375 27.9618H9.26474C7.92038 27.9618 6.83057 26.836 6.83057 25.4472Z" stroke="white" stroke-width="1.99727"/>
<path d="M21.5882 9.23745C21.5882 12.133 19.1539 14.4803 16.1512 14.4803C13.1484 14.4803 10.7142 12.133 10.7142 9.23745C10.7142 6.34192 13.1484 3.99463 16.1512 3.99463C19.1539 3.99463 21.5882 6.34192 21.5882 9.23745Z" stroke="white" stroke-width="1.99727"/>
</svg>
