<svg width="52" height="51" viewBox="0 0 52 51" fill="none" xmlns="http://www.w3.org/2000/svg">
<path opacity="0.1" fill-rule="evenodd" clip-rule="evenodd" d="M0.47998 25.3867C0.47998 11.366 11.846 0 25.8666 0C39.8873 0 51.2533 11.366 51.2533 25.3867C51.2533 39.4073 39.8873 50.7733 25.8666 50.7733C11.846 50.7733 0.47998 39.4073 0.47998 25.3867Z" fill="#F8F8F8"/>
<path fill-rule="evenodd" clip-rule="evenodd" d="M36.4462 16.6586C37.6113 16.9783 38.529 17.9204 38.8404 19.1167C39.4063 21.285 39.4063 25.8091 39.4063 25.8091C39.4063 25.8091 39.4063 30.333 38.8404 32.5014C38.529 33.6977 37.6113 34.6398 36.4462 34.9597C34.3346 35.5406 25.8667 35.5406 25.8667 35.5406C25.8667 35.5406 17.3988 35.5406 15.2871 34.9597C14.1219 34.6398 13.2043 33.6977 12.8929 32.5014C12.3271 30.333 12.3271 25.8091 12.3271 25.8091C12.3271 25.8091 12.3271 21.285 12.8929 19.1167C13.2043 17.9204 14.1219 16.9783 15.2871 16.6586C17.3988 16.0775 25.8667 16.0775 25.8667 16.0775C25.8667 16.0775 34.3346 16.0775 36.4462 16.6586ZM23.3281 22.001V30.4632L30.0978 26.2323L23.3281 22.001Z" fill="#F8F8F8"/>
</svg>
